<?xml version="1.0" standalone="no"?>
<!DOCTYPE svg PUBLIC "-//W3C//DTD SVG 20010904//EN"
 "http://www.w3.org/TR/2001/REC-SVG-20010904/DTD/svg10.dtd">
<svg version="1.0" xmlns="http://www.w3.org/2000/svg"
 width="512.000000pt" height="512.000000pt" viewBox="0 0 512.000000 512.000000"
 preserveAspectRatio="xMidYMid meet">
<metadata>
Created by potrace 1.14, written by Peter Selinger 2001-2017
</metadata>
<g transform="translate(0.000000,512.000000) scale(0.100000,-0.100000)"
fill="#000000" stroke="none">
<path d="M2378 5115 c-2 -1 -41 -5 -88 -9 -47 -4 -96 -8 -110 -10 -14 -2 -46
-7 -71 -10 -25 -4 -57 -9 -70 -11 -13 -3 -32 -7 -43 -9 -109 -21 -318 -96
-443 -158 -211 -105 -370 -217 -542 -383 -118 -113 -135 -132 -223 -245 -58
-74 -169 -250 -202 -320 -9 -19 -21 -44 -26 -55 -29 -60 -97 -249 -110 -305
-2 -11 -10 -47 -16 -80 -32 -157 -38 -226 -38 -425 0 -147 8 -274 19 -330 3
-11 7 -36 9 -55 7 -49 43 -204 62 -262 9 -27 17 -52 18 -55 7 -25 55 -153 81
-213 97 -223 250 -453 412 -620 48 -49 93 -95 101 -102 8 -7 40 -36 72 -63
176 -154 446 -306 670 -377 47 -15 94 -30 105 -32 11 -3 31 -9 45 -14 73 -25
206 -47 349 -57 177 -13 417 1 563 32 11 2 34 7 50 10 17 3 41 8 55 11 14 3
36 8 50 10 55 11 249 79 344 121 487 215 851 580 1058 1061 12 28 26 57 30 65
8 13 51 135 63 175 43 146 73 318 80 453 14 296 -34 622 -132 889 -15 40 -27
77 -29 83 -25 116 -189 416 -294 537 -20 24 -37 45 -37 48 0 2 -17 21 -37 43
-21 21 -56 58 -78 82 -22 24 -69 68 -105 98 -36 30 -67 57 -70 60 -3 3 -27 21
-55 40 -27 19 -54 38 -60 43 -164 128 -531 297 -720 331 -11 2 -31 6 -45 9
-14 3 -43 8 -65 11 -22 3 -53 8 -70 11 -35 6 -446 14 -452 9z"/>
</g>
</svg> 